<svg xmlns="http://www.w3.org/2000/svg" xmlns:xlink="http://www.w3.org/1999/xlink" contentStyleType="text/css" data-diagram-type="SEQUENCE" height="525px" preserveAspectRatio="none" style="width:1119px;height:525px;background:#FFFFFF;" version="1.1" viewBox="0 0 1119 525" width="1119px" zoomAndPan="magnify"><defs/><g><g><title>Facade</title><rect fill="#FFFFFF" height="303.8945" style="stroke:#181818;stroke-width:1;" width="10" x="507.1211" y="112.4297"/></g><rect fill="transparent" height="133.6641" style="stroke:#000000;stroke-width:1.5;" width="643.3843" x="469.917" y="243.9609"/><g><title>Client</title><rect fill="transparent" height="363.5938" width="8" x="24.2651" y="81.2969"/><line style="stroke:#181818;stroke-width:0.5;stroke-dasharray:5.0,5.0;" x1="28" x2="28" y1="81.2969" y2="444.8906"/></g><g><title>Facade</title><rect fill="transparent" height="363.5938" width="8" x="508.1211" y="81.2969"/><line style="stroke:#181818;stroke-width:0.5;stroke-dasharray:5.0,5.0;" x1="511.917" x2="511.917" y1="81.2969" y2="444.8906"/></g><g><title>Invoice</title><rect fill="transparent" height="363.5938" width="8" x="793.9155" y="81.2969"/><line style="stroke:#181818;stroke-width:0.5;stroke-dasharray:5.0,5.0;" x1="797.8892" x2="797.8892" y1="81.2969" y2="444.8906"/></g><g><title>Order</title><rect fill="transparent" height="363.5938" width="8" x="862.9575" y="81.2969"/><line style="stroke:#181818;stroke-width:0.5;stroke-dasharray:5.0,5.0;" x1="866.9419" x2="866.9419" y1="81.2969" y2="444.8906"/></g><g><title>Meal</title><rect fill="transparent" height="363.5938" width="8" x="923.5537" y="81.2969"/><line style="stroke:#181818;stroke-width:0.5;stroke-dasharray:5.0,5.0;" x1="926.9731" x2="926.9731" y1="81.2969" y2="444.8906"/></g><g><title>DatabaseManager</title><rect fill="transparent" height="363.5938" width="8" x="1028.2178" y="81.2969"/><line style="stroke:#181818;stroke-width:0.5;stroke-dasharray:5.0,5.0;" x1="1032.1343" x2="1032.1343" y1="81.2969" y2="444.8906"/></g><text fill="#000000" font-family="sans-serif" font-size="14" lengthAdjust="spacing" textLength="40.5303" x="5" y="77.9951">Client</text><ellipse cx="28.2651" cy="13.5" fill="#E3E3E3" rx="8" ry="8" style="stroke:#181818;stroke-width:0.5;"/><path d="M28.2651,21.5 L28.2651,48.5 M15.2651,29.5 L41.2651,29.5 M28.2651,48.5 L15.2651,63.5 M28.2651,48.5 L41.2651,63.5 " fill="transparent" style="stroke:#181818;stroke-width:0.5;"/><text fill="#000000" font-family="sans-serif" font-size="14" lengthAdjust="spacing" textLength="40.5303" x="5" y="456.8857">Client</text><ellipse cx="28.2651" cy="468.6875" fill="#E3E3E3" rx="8" ry="8" style="stroke:#181818;stroke-width:0.5;"/><path d="M28.2651,476.6875 L28.2651,503.6875 M15.2651,484.6875 L41.2651,484.6875 M28.2651,503.6875 L15.2651,518.6875 M28.2651,503.6875 L41.2651,518.6875 " fill="transparent" style="stroke:#181818;stroke-width:0.5;"/><rect fill="#E3E3E3" height="30.2969" rx="2.5" ry="2.5" style="stroke:#181818;stroke-width:0.5;" width="64.4082" x="479.917" y="50"/><text fill="#000000" font-family="sans-serif" font-size="14" lengthAdjust="spacing" textLength="50.4082" x="486.917" y="69.9951">Facade</text><rect fill="#E3E3E3" height="30.2969" rx="2.5" ry="2.5" style="stroke:#181818;stroke-width:0.5;" width="64.4082" x="479.917" y="443.8906"/><text fill="#000000" font-family="sans-serif" font-size="14" lengthAdjust="spacing" textLength="50.4082" x="486.917" y="463.8857">Facade</text><rect fill="#E3E3E3" height="30.2969" rx="2.5" ry="2.5" style="stroke:#181818;stroke-width:0.5;" width="64.0527" x="765.8892" y="50"/><text fill="#000000" font-family="sans-serif" font-size="14" lengthAdjust="spacing" textLength="50.0527" x="772.8892" y="69.9951">Invoice</text><rect fill="#E3E3E3" height="30.2969" rx="2.5" ry="2.5" style="stroke:#181818;stroke-width:0.5;" width="64.0527" x="765.8892" y="443.8906"/><text fill="#000000" font-family="sans-serif" font-size="14" lengthAdjust="spacing" textLength="50.0527" x="772.8892" y="463.8857">Invoice</text><rect fill="#E3E3E3" height="30.2969" rx="2.5" ry="2.5" style="stroke:#181818;stroke-width:0.5;" width="54.0313" x="839.9419" y="50"/><text fill="#000000" font-family="sans-serif" font-size="14" lengthAdjust="spacing" textLength="40.0313" x="846.9419" y="69.9951">Order</text><rect fill="#E3E3E3" height="30.2969" rx="2.5" ry="2.5" style="stroke:#181818;stroke-width:0.5;" width="54.0313" x="839.9419" y="443.8906"/><text fill="#000000" font-family="sans-serif" font-size="14" lengthAdjust="spacing" textLength="40.0313" x="846.9419" y="463.8857">Order</text><rect fill="#E3E3E3" height="30.2969" rx="2.5" ry="2.5" style="stroke:#181818;stroke-width:0.5;" width="47.1611" x="903.9731" y="50"/><text fill="#000000" font-family="sans-serif" font-size="14" lengthAdjust="spacing" textLength="33.1611" x="910.9731" y="69.9951">Meal</text><rect fill="#E3E3E3" height="30.2969" rx="2.5" ry="2.5" style="stroke:#181818;stroke-width:0.5;" width="47.1611" x="903.9731" y="443.8906"/><text fill="#000000" font-family="sans-serif" font-size="14" lengthAdjust="spacing" textLength="33.1611" x="910.9731" y="463.8857">Meal</text><rect fill="#E3E3E3" height="30.2969" rx="2.5" ry="2.5" style="stroke:#181818;stroke-width:0.5;" width="142.167" x="961.1343" y="50"/><text fill="#000000" font-family="sans-serif" font-size="14" lengthAdjust="spacing" textLength="128.167" x="968.1343" y="69.9951">DatabaseManager</text><rect fill="#E3E3E3" height="30.2969" rx="2.5" ry="2.5" style="stroke:#181818;stroke-width:0.5;" width="142.167" x="961.1343" y="443.8906"/><text fill="#000000" font-family="sans-serif" font-size="14" lengthAdjust="spacing" textLength="128.167" x="968.1343" y="463.8857">DatabaseManager</text><g><title>Facade</title><rect fill="#FFFFFF" height="303.8945" style="stroke:#181818;stroke-width:1;" width="10" x="507.1211" y="112.4297"/></g><polygon fill="#181818" points="495.1211,108.4297,505.1211,112.4297,495.1211,116.4297,499.1211,112.4297" style="stroke:#181818;stroke-width:1;"/><line style="stroke:#181818;stroke-width:1;" x1="28.2651" x2="501.1211" y1="112.4297" y2="112.4297"/><text fill="#000000" font-family="sans-serif" font-size="13" lengthAdjust="spacing" textLength="459.856" x="35.2651" y="107.3638">commanderRepas(username: String, listeRepas: Map&lt;Meal, Integer&gt;)</text><polygon fill="#181818" points="785.9155,137.5625,795.9155,141.5625,785.9155,145.5625,789.9155,141.5625" style="stroke:#181818;stroke-width:1;"/><line style="stroke:#181818;stroke-width:1;" x1="517.1211" x2="791.9155" y1="141.5625" y2="141.5625"/><text fill="#000000" font-family="sans-serif" font-size="13" lengthAdjust="spacing" textLength="256.7944" x="524.1211" y="136.4966">create(username: String, total: Double)</text><polygon fill="#181818" points="528.1211,166.6953,518.1211,170.6953,528.1211,174.6953,524.1211,170.6953" style="stroke:#181818;stroke-width:1;"/><line style="stroke:#181818;stroke-width:1;stroke-dasharray:2.0,2.0;" x1="522.1211" x2="796.9155" y1="170.6953" y2="170.6953"/><text fill="#000000" font-family="sans-serif" font-size="13" lengthAdjust="spacing" textLength="107.4087" x="534.1211" y="165.6294">invoiceID: String</text><polygon fill="#181818" points="1020.2178,195.8281,1030.2178,199.8281,1020.2178,203.8281,1024.2178,199.8281" style="stroke:#181818;stroke-width:1;"/><line style="stroke:#181818;stroke-width:1;" x1="517.1211" x2="1026.2178" y1="199.8281" y2="199.8281"/><text fill="#000000" font-family="sans-serif" font-size="13" lengthAdjust="spacing" textLength="236.0313" x="524.1211" y="194.7622">enregistrerInvoice(invoiceID: String)</text><polygon fill="#181818" points="528.1211,224.9609,518.1211,228.9609,528.1211,232.9609,524.1211,228.9609" style="stroke:#181818;stroke-width:1;"/><line style="stroke:#181818;stroke-width:1;stroke-dasharray:2.0,2.0;" x1="522.1211" x2="1031.2178" y1="228.9609" y2="228.9609"/><text fill="#000000" font-family="sans-serif" font-size="13" lengthAdjust="spacing" textLength="44.0781" x="534.1211" y="223.895">succ&#232;s</text><path d="M469.917,243.9609 L546.541,243.9609 L546.541,251.0938 L536.541,261.0938 L469.917,261.0938 L469.917,243.9609 " fill="#EEEEEE" style="stroke:#000000;stroke-width:1.5;"/><rect fill="transparent" height="133.6641" style="stroke:#000000;stroke-width:1.5;" width="643.3843" x="469.917" y="243.9609"/><text fill="#000000" font-family="sans-serif" font-size="13" font-weight="bold" lengthAdjust="spacing" textLength="31.624" x="484.917" y="257.0278">loop</text><text fill="#000000" font-family="sans-serif" font-size="11" font-weight="bold" lengthAdjust="spacing" textLength="234.3408" x="561.541" y="256.1714">[Pour chaque entr&#233;e dans listeRepas]</text><polygon fill="#181818" points="854.9575,278.2266,864.9575,282.2266,854.9575,286.2266,858.9575,282.2266" style="stroke:#181818;stroke-width:1;"/><line style="stroke:#181818;stroke-width:1;" x1="517.1211" x2="860.9575" y1="282.2266" y2="282.2266"/><text fill="#000000" font-family="sans-serif" font-size="13" lengthAdjust="spacing" textLength="287.333" x="524.1211" y="277.1606">create(mealName: String, quantity: Integer)</text><polygon fill="#181818" points="528.1211,307.3594,518.1211,311.3594,528.1211,315.3594,524.1211,311.3594" style="stroke:#181818;stroke-width:1;"/><line style="stroke:#181818;stroke-width:1;stroke-dasharray:2.0,2.0;" x1="522.1211" x2="865.9575" y1="311.3594" y2="311.3594"/><text fill="#000000" font-family="sans-serif" font-size="13" lengthAdjust="spacing" textLength="96.0464" x="534.1211" y="306.2935">orderID: String</text><polygon fill="#181818" points="1020.2178,336.4922,1030.2178,340.4922,1020.2178,344.4922,1024.2178,340.4922" style="stroke:#181818;stroke-width:1;"/><line style="stroke:#181818;stroke-width:1;" x1="517.1211" x2="1026.2178" y1="340.4922" y2="340.4922"/><text fill="#000000" font-family="sans-serif" font-size="13" lengthAdjust="spacing" textLength="470.6279" x="524.1211" y="335.4263">enregistrerOrder(invoiceID: String, mealName: String, quantity: Integer)</text><polygon fill="#181818" points="528.1211,365.625,518.1211,369.625,528.1211,373.625,524.1211,369.625" style="stroke:#181818;stroke-width:1;"/><line style="stroke:#181818;stroke-width:1;stroke-dasharray:2.0,2.0;" x1="522.1211" x2="1031.2178" y1="369.625" y2="369.625"/><text fill="#000000" font-family="sans-serif" font-size="13" lengthAdjust="spacing" textLength="44.0781" x="534.1211" y="364.5591">succ&#232;s</text><polygon fill="#181818" points="39.2651,412.3242,29.2651,416.3242,39.2651,420.3242,35.2651,416.3242" style="stroke:#181818;stroke-width:1;"/><line style="stroke:#181818;stroke-width:1;" x1="33.2651" x2="511.1211" y1="416.3242" y2="416.3242"/><text fill="#000000" font-family="sans-serif" font-size="13" lengthAdjust="spacing" textLength="435.2144" x="45.2651" y="411.2583">afficherFacture(invoiceID: String, listeRepas: Map&lt;Meal, Integer&gt;)</text><path d="M522,389.625 L522,429.625 L758,429.625 L758,399.625 L748,389.625 L522,389.625 " fill="#FAFAFA" style="stroke:#181818;stroke-width:0.5;"/><path d="M748,389.625 L748,399.625 L758,399.625 L748,389.625 " fill="#FAFAFA" style="stroke:#181818;stroke-width:0.5;"/><text fill="#000000" font-family="sans-serif" font-size="13" lengthAdjust="spacing" textLength="121.4434" x="528" y="406.6919">Sc&#233;nario nominal :</text><text fill="#000000" font-family="sans-serif" font-size="13" lengthAdjust="spacing" textLength="215.7441" x="528" y="421.8247">le client commande avec succ&#232;s.</text><!--SRC=[ZL91Rjim4Bpp5GjV4WDE7o0K0Q8A1N9mMZJNNZRKsYPASPKbvRGlQlCEVwmhKKgbE4Lxqcg7mvbPRlpcGek23JGSs1w46u8a7PduWWZ5baEaBSM8Uoh9yzED23_bWmPjOe7L1-yef1LWX5mQfITdNOiXmUeZMgnfW7EvX6_3aPtD-5Wl3toIccI0Xse9RWdzWFN54gemuGEgUmngFjzGbSPSm8rDxeZ9SO2Qm2FiyFIpDvRjmzNrwBG0oqs3GMM_K8lnieia0Hi5xfEuiD-0Tp7H01QmnVPzxsEZGHAfvlMwdr6lHLDsax-znfXMHOJqn1kN9qxe2wYuU_2qDYC1hcO6NUxTLXDh9b2L1L0Gsgj78HdfbsUKjQdAnQMni_RqA_QpAhcpdg3bJi0UyB4ZNGjDQpnp2vzdRPsSd9u9QWnnDXO3yCVHy88lWHkTrTqYy6EdJ-VIZsAQu5hf0sdXZ_lEBF9SubNeWNmUUGF_AVwNoL2evq-P5wS0tEsSFP0eaZgXjtJ_jJ0rdQtC1Ton_jBtrZkhUtia4_g6kFr1HU_jwJcWE8R0ZGleeO2lGH_DvdMUTXZmI7PAyEut]--></g></svg>