<svg xmlns="http://www.w3.org/2000/svg" xmlns:xlink="http://www.w3.org/1999/xlink" contentStyleType="text/css" data-diagram-type="CLASS" height="822px" preserveAspectRatio="none" style="width:756px;height:822px;background:#FFFFFF;" version="1.1" viewBox="0 0 756 822" width="756px" zoomAndPan="magnify"><defs/><g><!--class User--><g id="elem_User"><rect codeLine="6" fill="#F1F1F1" height="88.5938" id="User" rx="2.5" ry="2.5" style="stroke:#181818;stroke-width:0.5;" width="142.2393" x="293.5" y="7"/><ellipse cx="342.4146" cy="23" fill="#CDCDCD" rx="11" ry="11" style="stroke:#181818;stroke-width:1;"/><path d="M342.5239,18.3438 L341.3677,23.4219 L343.6958,23.4219 L342.5239,18.3438 Z M341.0396,16.1094 L344.0239,16.1094 L347.3833,28.5 L344.9302,28.5 L344.1646,25.4375 L340.8833,25.4375 L340.1333,28.5 L337.6958,28.5 L341.0396,16.1094 Z " fill="#000000"/><text fill="#000000" font-family="sans-serif" font-size="14" font-style="italic" lengthAdjust="spacing" textLength="31.9102" x="364.9146" y="27.8467">User</text><line style="stroke:#181818;stroke-width:0.5;" x1="294.5" x2="434.7393" y1="39" y2="39"/><text fill="#000000" font-family="sans-serif" font-size="14" lengthAdjust="spacing" textLength="126.2393" x="301.5" y="57.9951">-username: String</text><text fill="#000000" font-family="sans-serif" font-size="14" lengthAdjust="spacing" textLength="122.7119" x="301.5" y="78.292">-password: String</text><line style="stroke:#181818;stroke-width:0.5;" x1="294.5" x2="434.7393" y1="87.5938" y2="87.5938"/></g><!--class Client--><g id="elem_Client"><rect codeLine="11" fill="#F1F1F1" height="88.5938" id="Client" rx="2.5" ry="2.5" style="stroke:#181818;stroke-width:0.5;" width="186.2012" x="171.5" y="177"/><ellipse cx="238.0854" cy="193" fill="#C2C2C2" rx="11" ry="11" style="stroke:#181818;stroke-width:1;"/><path d="M241.0542,198.6406 Q240.4761,198.9375 239.8354,199.0781 Q239.1948,199.2344 238.4917,199.2344 Q235.9917,199.2344 234.6636,197.5938 Q233.3511,195.9375 233.3511,192.8125 Q233.3511,189.6875 234.6636,188.0313 Q235.9917,186.375 238.4917,186.375 Q239.1948,186.375 239.8354,186.5313 Q240.4917,186.6875 241.0542,186.9844 L241.0542,189.7031 Q240.4292,189.125 239.8354,188.8594 Q239.2417,188.5781 238.6167,188.5781 Q237.2729,188.5781 236.5854,189.6563 Q235.8979,190.7188 235.8979,192.8125 Q235.8979,194.9063 236.5854,195.9844 Q237.2729,197.0469 238.6167,197.0469 Q239.2417,197.0469 239.8354,196.7813 Q240.4292,196.5 241.0542,195.9219 L241.0542,198.6406 Z " fill="#000000"/><text fill="#000000" font-family="sans-serif" font-size="14" lengthAdjust="spacing" textLength="40.5303" x="260.5854" y="197.8467">Client</text><line style="stroke:#181818;stroke-width:0.5;" x1="172.5" x2="356.7012" y1="209" y2="209"/><text fill="#000000" font-family="sans-serif" font-size="14" lengthAdjust="spacing" textLength="87.0762" x="179.5" y="227.9951">-nom: String</text><text fill="#000000" font-family="sans-serif" font-size="14" lengthAdjust="spacing" textLength="170.2012" x="179.5" y="248.292">-nbCommandes: Integer</text><line style="stroke:#181818;stroke-width:0.5;" x1="172.5" x2="356.7012" y1="257.5938" y2="257.5938"/></g><!--class DeliveryWorker--><g id="elem_DeliveryWorker"><rect codeLine="16" fill="#F1F1F1" height="68.2969" id="DeliveryWorker" rx="2.5" ry="2.5" style="stroke:#181818;stroke-width:0.5;" width="144.7529" x="393" y="187.5"/><ellipse cx="408" cy="203.5" fill="#C2C2C2" rx="11" ry="11" style="stroke:#181818;stroke-width:1;"/><path d="M410.9688,209.1406 Q410.3906,209.4375 409.75,209.5781 Q409.1094,209.7344 408.4063,209.7344 Q405.9063,209.7344 404.5781,208.0938 Q403.2656,206.4375 403.2656,203.3125 Q403.2656,200.1875 404.5781,198.5313 Q405.9063,196.875 408.4063,196.875 Q409.1094,196.875 409.75,197.0313 Q410.4063,197.1875 410.9688,197.4844 L410.9688,200.2031 Q410.3438,199.625 409.75,199.3594 Q409.1563,199.0781 408.5313,199.0781 Q407.1875,199.0781 406.5,200.1563 Q405.8125,201.2188 405.8125,203.3125 Q405.8125,205.4063 406.5,206.4844 Q407.1875,207.5469 408.5313,207.5469 Q409.1563,207.5469 409.75,207.2813 Q410.3438,207 410.9688,206.4219 L410.9688,209.1406 Z " fill="#000000"/><text fill="#000000" font-family="sans-serif" font-size="14" lengthAdjust="spacing" textLength="108.7529" x="424" y="208.3467">DeliveryWorker</text><line style="stroke:#181818;stroke-width:0.5;" x1="394" x2="536.7529" y1="219.5" y2="219.5"/><text fill="#000000" font-family="sans-serif" font-size="14" lengthAdjust="spacing" textLength="87.0762" x="401" y="238.4951">-nom: String</text><line style="stroke:#181818;stroke-width:0.5;" x1="394" x2="536.7529" y1="247.7969" y2="247.7969"/></g><!--class Meal--><g id="elem_Meal"><rect codeLine="20" fill="#F1F1F1" height="88.5938" id="Meal" rx="2.5" ry="2.5" style="stroke:#181818;stroke-width:0.5;" width="173.3496" x="278" y="727"/><ellipse cx="341.8442" cy="743" fill="#C2C2C2" rx="11" ry="11" style="stroke:#181818;stroke-width:1;"/><path d="M344.813,748.6406 Q344.2349,748.9375 343.5942,749.0781 Q342.9536,749.2344 342.2505,749.2344 Q339.7505,749.2344 338.4224,747.5938 Q337.1099,745.9375 337.1099,742.8125 Q337.1099,739.6875 338.4224,738.0313 Q339.7505,736.375 342.2505,736.375 Q342.9536,736.375 343.5942,736.5313 Q344.2505,736.6875 344.813,736.9844 L344.813,739.7031 Q344.188,739.125 343.5942,738.8594 Q343.0005,738.5781 342.3755,738.5781 Q341.0317,738.5781 340.3442,739.6563 Q339.6567,740.7188 339.6567,742.8125 Q339.6567,744.9063 340.3442,745.9844 Q341.0317,747.0469 342.3755,747.0469 Q343.0005,747.0469 343.5942,746.7813 Q344.188,746.5 344.813,745.9219 L344.813,748.6406 Z " fill="#000000"/><text fill="#000000" font-family="sans-serif" font-size="14" lengthAdjust="spacing" textLength="33.1611" x="364.3442" y="747.8467">Meal</text><line style="stroke:#181818;stroke-width:0.5;" x1="279" x2="450.3496" y1="759" y2="759"/><text fill="#000000" font-family="sans-serif" font-size="14" lengthAdjust="spacing" textLength="157.3496" x="286" y="777.9951">-nom: String {unique}</text><text fill="#000000" font-family="sans-serif" font-size="14" lengthAdjust="spacing" textLength="90.6445" x="286" y="798.292">-prix: Double</text><line style="stroke:#181818;stroke-width:0.5;" x1="279" x2="450.3496" y1="807.5938" y2="807.5938"/></g><!--class Invoice--><g id="elem_Invoice"><rect codeLine="25" fill="#F1F1F1" height="129.1875" id="Invoice" rx="2.5" ry="2.5" style="stroke:#181818;stroke-width:0.5;" width="357.209" x="186" y="347"/><ellipse cx="333.3281" cy="363" fill="#C2C2C2" rx="11" ry="11" style="stroke:#181818;stroke-width:1;"/><path d="M336.2969,368.6406 Q335.7188,368.9375 335.0781,369.0781 Q334.4375,369.2344 333.7344,369.2344 Q331.2344,369.2344 329.9063,367.5938 Q328.5938,365.9375 328.5938,362.8125 Q328.5938,359.6875 329.9063,358.0313 Q331.2344,356.375 333.7344,356.375 Q334.4375,356.375 335.0781,356.5313 Q335.7344,356.6875 336.2969,356.9844 L336.2969,359.7031 Q335.6719,359.125 335.0781,358.8594 Q334.4844,358.5781 333.8594,358.5781 Q332.5156,358.5781 331.8281,359.6563 Q331.1406,360.7188 331.1406,362.8125 Q331.1406,364.9063 331.8281,365.9844 Q332.5156,367.0469 333.8594,367.0469 Q334.4844,367.0469 335.0781,366.7813 Q335.6719,366.5 336.2969,365.9219 L336.2969,368.6406 Z " fill="#000000"/><text fill="#000000" font-family="sans-serif" font-size="14" lengthAdjust="spacing" textLength="50.0527" x="355.8281" y="367.8467">Invoice</text><line style="stroke:#181818;stroke-width:0.5;" x1="187" x2="542.209" y1="379" y2="379"/><text fill="#000000" font-family="sans-serif" font-size="14" lengthAdjust="spacing" textLength="120.7227" x="194" y="397.9951">-invoiceID: String</text><text fill="#000000" font-family="sans-serif" font-size="14" lengthAdjust="spacing" textLength="126.2393" x="194" y="418.292">-username: String</text><text fill="#000000" font-family="sans-serif" font-size="14" lengthAdjust="spacing" textLength="95.8398" x="194" y="438.5889">-total: Double</text><text fill="#000000" font-family="sans-serif" font-size="14" lengthAdjust="spacing" textLength="341.209" x="194" y="458.8857">-status: String {Pending, Delivered, Fake Client}</text><line style="stroke:#181818;stroke-width:0.5;" x1="187" x2="542.209" y1="468.1875" y2="468.1875"/></g><!--class Order--><g id="elem_Order"><rect codeLine="32" fill="#F1F1F1" height="88.5938" id="Order" rx="2.5" ry="2.5" style="stroke:#181818;stroke-width:0.5;" width="148.0225" x="290.5" y="557"/><ellipse cx="338.2456" cy="573" fill="#C2C2C2" rx="11" ry="11" style="stroke:#181818;stroke-width:1;"/><path d="M341.2144,578.6406 Q340.6362,578.9375 339.9956,579.0781 Q339.355,579.2344 338.6519,579.2344 Q336.1519,579.2344 334.8237,577.5938 Q333.5112,575.9375 333.5112,572.8125 Q333.5112,569.6875 334.8237,568.0313 Q336.1519,566.375 338.6519,566.375 Q339.355,566.375 339.9956,566.5313 Q340.6519,566.6875 341.2144,566.9844 L341.2144,569.7031 Q340.5894,569.125 339.9956,568.8594 Q339.4019,568.5781 338.7769,568.5781 Q337.4331,568.5781 336.7456,569.6563 Q336.0581,570.7188 336.0581,572.8125 Q336.0581,574.9063 336.7456,575.9844 Q337.4331,577.0469 338.7769,577.0469 Q339.4019,577.0469 339.9956,576.7813 Q340.5894,576.5 341.2144,575.9219 L341.2144,578.6406 Z " fill="#000000"/><text fill="#000000" font-family="sans-serif" font-size="14" lengthAdjust="spacing" textLength="40.0313" x="360.7456" y="577.8467">Order</text><line style="stroke:#181818;stroke-width:0.5;" x1="291.5" x2="437.5225" y1="589" y2="589"/><text fill="#000000" font-family="sans-serif" font-size="14" lengthAdjust="spacing" textLength="132.0225" x="298.5" y="607.9951">-mealName: String</text><text fill="#000000" font-family="sans-serif" font-size="14" lengthAdjust="spacing" textLength="122.9443" x="298.5" y="628.292">-quantity: Integer</text><line style="stroke:#181818;stroke-width:0.5;" x1="291.5" x2="437.5225" y1="637.5938" y2="637.5938"/></g><g id="elem_GMN14"><path d="M471,29.5 L471,47.5 L435.61,51.5 L471,55.5 L471,73.7656 A0,0 0 0 0 471,73.7656 L749.5889,73.7656 A0,0 0 0 0 749.5889,73.7656 L749.5889,39.5 L739.5889,29.5 L471,29.5 A0,0 0 0 0 471,29.5 " fill="#FAFAFA" style="stroke:#181818;stroke-width:0.5;"/><path d="M739.5889,29.5 L739.5889,39.5 L749.5889,39.5 L739.5889,29.5 " fill="#FAFAFA" style="stroke:#181818;stroke-width:0.5;"/><text fill="#000000" font-family="sans-serif" font-size="13" lengthAdjust="spacing" textLength="204.3057" x="479" y="48.5669">Classe abstraite pour factoriser</text><text fill="#000000" font-family="sans-serif" font-size="13" lengthAdjust="spacing" textLength="253.5889" x="479" y="63.6997">les attributs communs des utilisateurs.</text></g><g id="elem_GMN17"><path d="M6,579.5 L6,623.7656 A0,0 0 0 0 6,623.7656 L254.793,623.7656 A0,0 0 0 0 254.793,623.7656 L254.793,605.5 L290.26,601.5 L254.793,597.5 L254.793,589.5 L244.793,579.5 L6,579.5 A0,0 0 0 0 6,579.5 " fill="#FAFAFA" style="stroke:#181818;stroke-width:0.5;"/><path d="M244.793,579.5 L244.793,589.5 L254.793,589.5 L244.793,579.5 " fill="#FAFAFA" style="stroke:#181818;stroke-width:0.5;"/><text fill="#000000" font-family="sans-serif" font-size="13" lengthAdjust="spacing" textLength="223.793" x="14" y="598.5669">Order est une classe d&#8217;association</text><text fill="#000000" font-family="sans-serif" font-size="13" lengthAdjust="spacing" textLength="148.7637" x="14" y="613.6997">reliant Invoice et Meal.</text></g><!--reverse link User to Client--><g id="link_User_Client"><path codeLine="38" d="M329.2814,111.6662 C314.5214,136.4562 305.32,151.92 290.56,176.73 " fill="transparent" id="User-backto-Client" style="stroke:#181818;stroke-width:1;"/><polygon fill="transparent" points="338.49,96.2,324.126,108.5966,334.4368,114.7357,338.49,96.2" style="stroke:#181818;stroke-width:1;"/><text fill="#000000" font-family="sans-serif" font-size="13" lengthAdjust="spacing" textLength="38.2891" x="323.5" y="141.0669">h&#233;rite</text></g><!--reverse link User to DeliveryWorker--><g id="link_User_DeliveryWorker"><path codeLine="39" d="M400.0453,111.6263 C417.1753,140.1163 429.9,161.28 445.58,187.37 " fill="transparent" id="User-backto-DeliveryWorker" style="stroke:#181818;stroke-width:1;"/><polygon fill="transparent" points="390.77,96.2,394.9032,114.718,405.1873,108.5345,390.77,96.2" style="stroke:#181818;stroke-width:1;"/><text fill="#000000" font-family="sans-serif" font-size="13" lengthAdjust="spacing" textLength="38.2891" x="424.5" y="141.0669">h&#233;rite</text></g><!--link Client to Invoice--><g id="link_Client_Invoice"><path codeLine="40" d="M287.69,266.1 C300.44,290.08 316.5,320.26 330.63,346.82 " fill="transparent" id="Client-Invoice" style="stroke:#181818;stroke-width:1;"/><text fill="#000000" font-family="sans-serif" font-size="13" lengthAdjust="spacing" textLength="37.7622" x="317.5" y="311.0669">passe</text><text fill="#000000" font-family="sans-serif" font-size="13" lengthAdjust="spacing" textLength="8.271" x="280.1123" y="287.8126">1</text><text fill="#000000" font-family="sans-serif" font-size="13" lengthAdjust="spacing" textLength="23.0356" x="300.4394" y="333.7705">0..*</text></g><!--link DeliveryWorker to Invoice--><g id="link_DeliveryWorker_Invoice"><path codeLine="41" d="M447.68,255.68 C434.14,280.87 415.12,316.28 398.68,346.88 " fill="transparent" id="DeliveryWorker-Invoice" style="stroke:#181818;stroke-width:1;"/><text fill="#000000" font-family="sans-serif" font-size="13" lengthAdjust="spacing" textLength="29.5928" x="427.5" y="311.0669">g&#232;re</text><text fill="#000000" font-family="sans-serif" font-size="13" lengthAdjust="spacing" textLength="8.271" x="433.3359" y="277.7853">1</text><text fill="#000000" font-family="sans-serif" font-size="13" lengthAdjust="spacing" textLength="23.0356" x="375.9324" y="333.837">0..*</text></g><!--link Invoice to Order--><g id="link_Invoice_Order"><path codeLine="42" d="M364.5,476.15 C364.5,502.67 364.5,532.81 364.5,556.77 " fill="transparent" id="Invoice-Order" style="stroke:#181818;stroke-width:1;"/><text fill="#000000" font-family="sans-serif" font-size="13" lengthAdjust="spacing" textLength="53.3838" x="367.5" y="521.0669">contient</text><text fill="#000000" font-family="sans-serif" font-size="13" lengthAdjust="spacing" textLength="8.271" x="353.8471" y="498.3241">1</text><text fill="#000000" font-family="sans-serif" font-size="13" lengthAdjust="spacing" textLength="23.0356" x="337.5182" y="543.9115">0..*</text></g><!--link Order to Meal--><g id="link_Order_Meal"><path codeLine="43" d="M364.5,646.2 C364.5,670.99 364.5,701.92 364.5,726.73 " fill="transparent" id="Order-Meal" style="stroke:#181818;stroke-width:1;"/><text fill="#000000" font-family="sans-serif" font-size="13" lengthAdjust="spacing" textLength="62.645" x="367.5" y="691.0669">r&#233;f&#233;rence</text><text fill="#000000" font-family="sans-serif" font-size="13" lengthAdjust="spacing" textLength="23.0356" x="337.6868" y="667.5862">0..*</text><text fill="#000000" font-family="sans-serif" font-size="13" lengthAdjust="spacing" textLength="8.271" x="353.613" y="713.8656">1</text></g><!--SRC=[TLDBZXCn4Dtx5ALiHaAJQ63POeCI8MN1W1WXravt9Id5RMViSfWmHE8Qt82Ses_2IIYtEzr9O7R-lETwzLuvRCXkjTSrrCwwSkrTZS0-eWhzJMbq2E-OFIqYuxnqze6-8zoTGRQwgiYku8rIDp1DU0oWTrY2xdW1UBzjZW6GOKU15cI8cwFIYy1Ubvohm9U07fuLm1YYBAskiO07USAksiEjWBuvN_M71wKoSse8BNTSw-eBcbrCNLrhMs4eO6uPL-W7wWmDxT3llpg_wSkVFz4ZFw0s_zx3SxJq6F6G9NfwAc3cuiBWm9pRdQCIEpBbtNnseVA_7RDZRVhtqabWpJ4CnJ-XJURVdlh0wXRUwmrsbXm64HzzrVTNIoltryKUexPClBymwGO-ez5CpdQPrj4mRGsLAS4sqUR8oG1cYLrAaSUWsYZV_XYFJz4Ki6wEdXZFhgwi7o0TP_Hw108RtKqchqQzYKKx1wYks2-1LyrlZ-gqlqHbImgGgUPKKUM3xZRX1Dx6Ne1lZakHXxR4vCgzOuIjYnxmIToG_ZqOdGSP8GzsQiKcdAVLci4jsmaNhwTNgFpGKdw2yvGX9lsX_lkKCi1H4f0HXiZoUu9cZ3vCbCGFgSQbfa59zUVdBrcuajeGinw3orPEswuKosrZO8WMNs82U75SHgGtLx9FvWmY_W80]--></g></svg>