<svg xmlns="http://www.w3.org/2000/svg" xmlns:xlink="http://www.w3.org/1999/xlink" contentStyleType="text/css" data-diagram-type="SEQUENCE" height="490px" preserveAspectRatio="none" style="width:1095px;height:490px;background:#FFFFFF;" version="1.1" viewBox="0 0 1095 490" width="1095px" zoomAndPan="magnify"><defs/><g><g><title>Facade</title><rect fill="#FFFFFF" height="287" style="stroke:#181818;stroke-width:1;" width="10" x="463.4604" y="112.4297"/></g><rect fill="transparent" height="206.7344" style="stroke:#000000;stroke-width:1.5;" width="861.978" x="10" y="185.6953"/><g><title>Client</title><rect fill="transparent" height="328.1328" width="8" x="39.2651" y="81.2969"/><line style="stroke:#181818;stroke-width:0.5;stroke-dasharray:5.0,5.0;" x1="43" x2="43" y1="81.2969" y2="409.4297"/></g><g><title>Facade</title><rect fill="transparent" height="328.1328" width="8" x="464.4604" y="81.2969"/><line style="stroke:#181818;stroke-width:0.5;stroke-dasharray:5.0,5.0;" x1="468.2563" x2="468.2563" y1="81.2969" y2="409.4297"/></g><g><title>Invoice</title><rect fill="transparent" height="328.1328" width="8" x="673.7847" y="81.2969"/><line style="stroke:#181818;stroke-width:0.5;stroke-dasharray:5.0,5.0;" x1="677.7583" x2="677.7583" y1="81.2969" y2="409.4297"/></g><g><title>DatabaseManager</title><rect fill="transparent" height="328.1328" width="8" x="786.8945" y="81.2969"/><line style="stroke:#181818;stroke-width:0.5;stroke-dasharray:5.0,5.0;" x1="790.811" x2="790.811" y1="81.2969" y2="409.4297"/></g><text fill="#000000" font-family="sans-serif" font-size="14" lengthAdjust="spacing" textLength="40.5303" x="20" y="77.9951">Client</text><ellipse cx="43.2651" cy="13.5" fill="#E3E3E3" rx="8" ry="8" style="stroke:#181818;stroke-width:0.5;"/><path d="M43.2651,21.5 L43.2651,48.5 M30.2651,29.5 L56.2651,29.5 M43.2651,48.5 L30.2651,63.5 M43.2651,48.5 L56.2651,63.5 " fill="transparent" style="stroke:#181818;stroke-width:0.5;"/><text fill="#000000" font-family="sans-serif" font-size="14" lengthAdjust="spacing" textLength="40.5303" x="20" y="421.4248">Client</text><ellipse cx="43.2651" cy="433.2266" fill="#E3E3E3" rx="8" ry="8" style="stroke:#181818;stroke-width:0.5;"/><path d="M43.2651,441.2266 L43.2651,468.2266 M30.2651,449.2266 L56.2651,449.2266 M43.2651,468.2266 L30.2651,483.2266 M43.2651,468.2266 L56.2651,483.2266 " fill="transparent" style="stroke:#181818;stroke-width:0.5;"/><rect fill="#E3E3E3" height="30.2969" rx="2.5" ry="2.5" style="stroke:#181818;stroke-width:0.5;" width="64.4082" x="436.2563" y="50"/><text fill="#000000" font-family="sans-serif" font-size="14" lengthAdjust="spacing" textLength="50.4082" x="443.2563" y="69.9951">Facade</text><rect fill="#E3E3E3" height="30.2969" rx="2.5" ry="2.5" style="stroke:#181818;stroke-width:0.5;" width="64.4082" x="436.2563" y="408.4297"/><text fill="#000000" font-family="sans-serif" font-size="14" lengthAdjust="spacing" textLength="50.4082" x="443.2563" y="428.4248">Facade</text><rect fill="#E3E3E3" height="30.2969" rx="2.5" ry="2.5" style="stroke:#181818;stroke-width:0.5;" width="64.0527" x="645.7583" y="50"/><text fill="#000000" font-family="sans-serif" font-size="14" lengthAdjust="spacing" textLength="50.0527" x="652.7583" y="69.9951">Invoice</text><rect fill="#E3E3E3" height="30.2969" rx="2.5" ry="2.5" style="stroke:#181818;stroke-width:0.5;" width="64.0527" x="645.7583" y="408.4297"/><text fill="#000000" font-family="sans-serif" font-size="14" lengthAdjust="spacing" textLength="50.0527" x="652.7583" y="428.4248">Invoice</text><rect fill="#E3E3E3" height="30.2969" rx="2.5" ry="2.5" style="stroke:#181818;stroke-width:0.5;" width="142.167" x="719.811" y="50"/><text fill="#000000" font-family="sans-serif" font-size="14" lengthAdjust="spacing" textLength="128.167" x="726.811" y="69.9951">DatabaseManager</text><rect fill="#E3E3E3" height="30.2969" rx="2.5" ry="2.5" style="stroke:#181818;stroke-width:0.5;" width="142.167" x="719.811" y="408.4297"/><text fill="#000000" font-family="sans-serif" font-size="14" lengthAdjust="spacing" textLength="128.167" x="726.811" y="428.4248">DatabaseManager</text><g><title>Facade</title><rect fill="#FFFFFF" height="287" style="stroke:#181818;stroke-width:1;" width="10" x="463.4604" y="112.4297"/></g><polygon fill="#181818" points="451.4604,108.4297,461.4604,112.4297,451.4604,116.4297,455.4604,112.4297" style="stroke:#181818;stroke-width:1;"/><line style="stroke:#181818;stroke-width:1;" x1="43.2651" x2="457.4604" y1="112.4297" y2="112.4297"/><text fill="#000000" font-family="sans-serif" font-size="13" lengthAdjust="spacing" textLength="242.0044" x="50.2651" y="107.3638">annulerCommande(invoiceID: String)</text><polygon fill="#181818" points="665.7847,137.5625,675.7847,141.5625,665.7847,145.5625,669.7847,141.5625" style="stroke:#181818;stroke-width:1;"/><line style="stroke:#181818;stroke-width:1;" x1="473.4604" x2="671.7847" y1="141.5625" y2="141.5625"/><text fill="#000000" font-family="sans-serif" font-size="13" lengthAdjust="spacing" textLength="180.3242" x="480.4604" y="136.4966">getStatus(invoiceID: String)</text><polygon fill="#181818" points="484.4604,166.6953,474.4604,170.6953,484.4604,174.6953,480.4604,170.6953" style="stroke:#181818;stroke-width:1;"/><line style="stroke:#181818;stroke-width:1;stroke-dasharray:2.0,2.0;" x1="478.4604" x2="676.7847" y1="170.6953" y2="170.6953"/><text fill="#000000" font-family="sans-serif" font-size="13" lengthAdjust="spacing" textLength="87.2549" x="490.4604" y="165.6294">status: String</text><path d="M10,185.6953 L74.4429,185.6953 L74.4429,192.8281 L64.4429,202.8281 L10,202.8281 L10,185.6953 " fill="#EEEEEE" style="stroke:#000000;stroke-width:1.5;"/><rect fill="transparent" height="206.7344" style="stroke:#000000;stroke-width:1.5;" width="861.978" x="10" y="185.6953"/><text fill="#000000" font-family="sans-serif" font-size="13" font-weight="bold" lengthAdjust="spacing" textLength="19.4429" x="25" y="198.7622">alt</text><text fill="#000000" font-family="sans-serif" font-size="11" font-weight="bold" lengthAdjust="spacing" textLength="127.9609" x="89.4429" y="197.9058">[status = "Pending"]</text><path d="M876.978,190.6953 L876.978,230.6953 L1088.978,230.6953 L1088.978,200.6953 L1078.978,190.6953 L876.978,190.6953 " fill="#FAFAFA" style="stroke:#181818;stroke-width:0.5;"/><path d="M1078.978,190.6953 L1078.978,200.6953 L1088.978,200.6953 L1078.978,190.6953 " fill="#FAFAFA" style="stroke:#181818;stroke-width:0.5;"/><text fill="#000000" font-family="sans-serif" font-size="13" lengthAdjust="spacing" textLength="191.1851" x="882.978" y="207.7622">Seules les factures "Pending"</text><text fill="#000000" font-family="sans-serif" font-size="13" lengthAdjust="spacing" textLength="151.417" x="882.978" y="222.895">peuvent &#234;tre annul&#233;es.</text><polygon fill="#181818" points="778.8945,219.9609,788.8945,223.9609,778.8945,227.9609,782.8945,223.9609" style="stroke:#181818;stroke-width:1;"/><line style="stroke:#181818;stroke-width:1;" x1="473.4604" x2="784.8945" y1="223.9609" y2="223.9609"/><text fill="#000000" font-family="sans-serif" font-size="13" lengthAdjust="spacing" textLength="227.9761" x="480.4604" y="218.895">supprimerOrders(invoiceID: String)</text><polygon fill="#181818" points="484.4604,249.0938,474.4604,253.0938,484.4604,257.0938,480.4604,253.0938" style="stroke:#181818;stroke-width:1;"/><line style="stroke:#181818;stroke-width:1;stroke-dasharray:2.0,2.0;" x1="478.4604" x2="789.8945" y1="253.0938" y2="253.0938"/><text fill="#000000" font-family="sans-serif" font-size="13" lengthAdjust="spacing" textLength="44.0781" x="490.4604" y="248.0278">succ&#232;s</text><polygon fill="#181818" points="778.8945,278.2266,788.8945,282.2266,778.8945,286.2266,782.8945,282.2266" style="stroke:#181818;stroke-width:1;"/><line style="stroke:#181818;stroke-width:1;" x1="473.4604" x2="784.8945" y1="282.2266" y2="282.2266"/><text fill="#000000" font-family="sans-serif" font-size="13" lengthAdjust="spacing" textLength="230.5088" x="480.4604" y="277.1606">supprimerInvoice(invoiceID: String)</text><polygon fill="#181818" points="484.4604,307.3594,474.4604,311.3594,484.4604,315.3594,480.4604,311.3594" style="stroke:#181818;stroke-width:1;"/><line style="stroke:#181818;stroke-width:1;stroke-dasharray:2.0,2.0;" x1="478.4604" x2="789.8945" y1="311.3594" y2="311.3594"/><text fill="#000000" font-family="sans-serif" font-size="13" lengthAdjust="spacing" textLength="44.0781" x="490.4604" y="306.2935">succ&#232;s</text><polygon fill="#181818" points="54.2651,336.4922,44.2651,340.4922,54.2651,344.4922,50.2651,340.4922" style="stroke:#181818;stroke-width:1;"/><line style="stroke:#181818;stroke-width:1;" x1="48.2651" x2="462.4604" y1="340.4922" y2="340.4922"/><text fill="#000000" font-family="sans-serif" font-size="13" lengthAdjust="spacing" textLength="259.7778" x="60.2651" y="335.4263">afficherMessage("Commande annul&#233;e")</text><line style="stroke:#000000;stroke-width:1;stroke-dasharray:2.0,2.0;" x1="10" x2="871.978" y1="349.4922" y2="349.4922"/><text fill="#000000" font-family="sans-serif" font-size="11" font-weight="bold" lengthAdjust="spacing" textLength="132.9775" x="15" y="359.7026">[status != "Pending"]</text><polygon fill="#181818" points="54.2651,380.4297,44.2651,384.4297,54.2651,388.4297,50.2651,384.4297" style="stroke:#181818;stroke-width:1;"/><line style="stroke:#181818;stroke-width:1;" x1="48.2651" x2="462.4604" y1="384.4297" y2="384.4297"/><text fill="#000000" font-family="sans-serif" font-size="13" lengthAdjust="spacing" textLength="396.1953" x="60.2651" y="379.3638">afficherMessage("Annulation impossible : &#233;tat non Pending")</text><!--SRC=[dL8xRiCm3Drr2jPBqo4zW84MI68KoD0Fa1CmCkC8jIM3afqUgUarVB7IaTtKQB9qC2oHZ-yzKlJlnjR8M47bhDDxTXL1u8QK_yam-TfPJy_aFHQqfD8T5ipk484ATN0CoQeqP4C2w24UbPG7eqsDDa3oX1fpEgNZSPfUszOP7VF3UGh8CE0MnGLQCS4dOBPKAch1_76WJG6jRKhYbQigj3dDJAHRPobi0XjRtFMMJOk1HYig_dkMGJo5Wi8cO6Zy9O811VDVklw47Z4obp8CCNY0v8riBk540Pp5igMKDNNDfY9-vPpueXe8S2hLQDrz-kjSWxz_ayMfoYntEwFtnCFRpv9ngd7AtP6IEqMbfx7JcskjNcLSz4GOZBDWgjfvRxObGGhTKHZ1IdZa4oMRAvNJd-UxXHSdL_geIwE5goLb-m2ROX_4nePa8ppqtqwA6rdfYSsQchRVekuhyBarVzyBGi_q3G00]--></g></svg>