<svg xmlns="http://www.w3.org/2000/svg" xmlns:xlink="http://www.w3.org/1999/xlink" contentStyleType="text/css" data-diagram-type="SEQUENCE" height="490px" preserveAspectRatio="none" style="width:918px;height:490px;background:#FFFFFF;" version="1.1" viewBox="0 0 918 490" width="918px" zoomAndPan="magnify"><defs/><g><g><title>Facade</title><rect fill="#FFFFFF" height="287" style="stroke:#181818;stroke-width:1;" width="10" x="366.0293" y="112.4297"/></g><rect fill="transparent" height="206.7344" style="stroke:#000000;stroke-width:1.5;" width="701.6216" x="10" y="185.6953"/><g><title>DeliveryWorker</title><rect fill="transparent" height="328.1328" width="8" x="73.3765" y="81.2969"/><line style="stroke:#181818;stroke-width:0.5;stroke-dasharray:5.0,5.0;" x1="77" x2="77" y1="81.2969" y2="409.4297"/></g><g><title>Facade</title><rect fill="transparent" height="328.1328" width="8" x="367.0293" y="81.2969"/><line style="stroke:#181818;stroke-width:0.5;stroke-dasharray:5.0,5.0;" x1="370.8252" x2="370.8252" y1="81.2969" y2="409.4297"/></g><g><title>DatabaseManager</title><rect fill="transparent" height="328.1328" width="8" x="626.5381" y="81.2969"/><line style="stroke:#181818;stroke-width:0.5;stroke-dasharray:5.0,5.0;" x1="630.4546" x2="630.4546" y1="81.2969" y2="409.4297"/></g><text fill="#000000" font-family="sans-serif" font-size="14" lengthAdjust="spacing" textLength="108.7529" x="20" y="77.9951">DeliveryWorker</text><ellipse cx="77.3765" cy="13.5" fill="#E3E3E3" rx="8" ry="8" style="stroke:#181818;stroke-width:0.5;"/><path d="M77.3765,21.5 L77.3765,48.5 M64.3765,29.5 L90.3765,29.5 M77.3765,48.5 L64.3765,63.5 M77.3765,48.5 L90.3765,63.5 " fill="transparent" style="stroke:#181818;stroke-width:0.5;"/><text fill="#000000" font-family="sans-serif" font-size="14" lengthAdjust="spacing" textLength="108.7529" x="20" y="421.4248">DeliveryWorker</text><ellipse cx="77.3765" cy="433.2266" fill="#E3E3E3" rx="8" ry="8" style="stroke:#181818;stroke-width:0.5;"/><path d="M77.3765,441.2266 L77.3765,468.2266 M64.3765,449.2266 L90.3765,449.2266 M77.3765,468.2266 L64.3765,483.2266 M77.3765,468.2266 L90.3765,483.2266 " fill="transparent" style="stroke:#181818;stroke-width:0.5;"/><rect fill="#E3E3E3" height="30.2969" rx="2.5" ry="2.5" style="stroke:#181818;stroke-width:0.5;" width="64.4082" x="338.8252" y="50"/><text fill="#000000" font-family="sans-serif" font-size="14" lengthAdjust="spacing" textLength="50.4082" x="345.8252" y="69.9951">Facade</text><rect fill="#E3E3E3" height="30.2969" rx="2.5" ry="2.5" style="stroke:#181818;stroke-width:0.5;" width="64.4082" x="338.8252" y="408.4297"/><text fill="#000000" font-family="sans-serif" font-size="14" lengthAdjust="spacing" textLength="50.4082" x="345.8252" y="428.4248">Facade</text><rect fill="#E3E3E3" height="30.2969" rx="2.5" ry="2.5" style="stroke:#181818;stroke-width:0.5;" width="142.167" x="559.4546" y="50"/><text fill="#000000" font-family="sans-serif" font-size="14" lengthAdjust="spacing" textLength="128.167" x="566.4546" y="69.9951">DatabaseManager</text><rect fill="#E3E3E3" height="30.2969" rx="2.5" ry="2.5" style="stroke:#181818;stroke-width:0.5;" width="142.167" x="559.4546" y="408.4297"/><text fill="#000000" font-family="sans-serif" font-size="14" lengthAdjust="spacing" textLength="128.167" x="566.4546" y="428.4248">DatabaseManager</text><g><title>Facade</title><rect fill="#FFFFFF" height="287" style="stroke:#181818;stroke-width:1;" width="10" x="366.0293" y="112.4297"/></g><polygon fill="#181818" points="354.0293,108.4297,364.0293,112.4297,354.0293,116.4297,358.0293,112.4297" style="stroke:#181818;stroke-width:1;"/><line style="stroke:#181818;stroke-width:1;" x1="77.3765" x2="360.0293" y1="112.4297" y2="112.4297"/><text fill="#000000" font-family="sans-serif" font-size="13" lengthAdjust="spacing" textLength="233.3018" x="84.3765" y="107.3638">supprimerFacture(invoiceID: String)</text><polygon fill="#181818" points="88.3765,137.5625,78.3765,141.5625,88.3765,145.5625,84.3765,141.5625" style="stroke:#181818;stroke-width:1;"/><line style="stroke:#181818;stroke-width:1;" x1="82.3765" x2="365.0293" y1="141.5625" y2="141.5625"/><text fill="#000000" font-family="sans-serif" font-size="13" lengthAdjust="spacing" textLength="152.7119" x="94.3765" y="136.4966">confirmerSuppression()</text><polygon fill="#181818" points="354.0293,166.6953,364.0293,170.6953,354.0293,174.6953,358.0293,170.6953" style="stroke:#181818;stroke-width:1;"/><line style="stroke:#181818;stroke-width:1;stroke-dasharray:2.0,2.0;" x1="77.3765" x2="360.0293" y1="170.6953" y2="170.6953"/><text fill="#000000" font-family="sans-serif" font-size="13" lengthAdjust="spacing" textLength="113.7119" x="84.3765" y="165.6294">r&#233;ponse: Boolean</text><path d="M10,185.6953 L74.4429,185.6953 L74.4429,192.8281 L64.4429,202.8281 L10,202.8281 L10,185.6953 " fill="#EEEEEE" style="stroke:#000000;stroke-width:1.5;"/><rect fill="transparent" height="206.7344" style="stroke:#000000;stroke-width:1.5;" width="701.6216" x="10" y="185.6953"/><text fill="#000000" font-family="sans-serif" font-size="13" font-weight="bold" lengthAdjust="spacing" textLength="19.4429" x="25" y="198.7622">alt</text><text fill="#000000" font-family="sans-serif" font-size="11" font-weight="bold" lengthAdjust="spacing" textLength="103.0605" x="89.4429" y="197.9058">[r&#233;ponse = true]</text><path d="M716.6216,190.6953 L716.6216,230.6953 L911.6216,230.6953 L911.6216,200.6953 L901.6216,190.6953 L716.6216,190.6953 " fill="#FAFAFA" style="stroke:#181818;stroke-width:0.5;"/><path d="M901.6216,190.6953 L901.6216,200.6953 L911.6216,200.6953 L901.6216,190.6953 " fill="#FAFAFA" style="stroke:#181818;stroke-width:0.5;"/><text fill="#000000" font-family="sans-serif" font-size="13" lengthAdjust="spacing" textLength="163.3188" x="722.6216" y="207.7622">La suppression n&#233;cessite</text><text fill="#000000" font-family="sans-serif" font-size="13" lengthAdjust="spacing" textLength="174.3003" x="722.6216" y="222.895">une confirmation explicite.</text><polygon fill="#181818" points="618.5381,219.9609,628.5381,223.9609,618.5381,227.9609,622.5381,223.9609" style="stroke:#181818;stroke-width:1;"/><line style="stroke:#181818;stroke-width:1;" x1="376.0293" x2="624.5381" y1="223.9609" y2="223.9609"/><text fill="#000000" font-family="sans-serif" font-size="13" lengthAdjust="spacing" textLength="227.9761" x="383.0293" y="218.895">supprimerOrders(invoiceID: String)</text><polygon fill="#181818" points="387.0293,249.0938,377.0293,253.0938,387.0293,257.0938,383.0293,253.0938" style="stroke:#181818;stroke-width:1;"/><line style="stroke:#181818;stroke-width:1;stroke-dasharray:2.0,2.0;" x1="381.0293" x2="629.5381" y1="253.0938" y2="253.0938"/><text fill="#000000" font-family="sans-serif" font-size="13" lengthAdjust="spacing" textLength="44.0781" x="393.0293" y="248.0278">succ&#232;s</text><polygon fill="#181818" points="618.5381,278.2266,628.5381,282.2266,618.5381,286.2266,622.5381,282.2266" style="stroke:#181818;stroke-width:1;"/><line style="stroke:#181818;stroke-width:1;" x1="376.0293" x2="624.5381" y1="282.2266" y2="282.2266"/><text fill="#000000" font-family="sans-serif" font-size="13" lengthAdjust="spacing" textLength="230.5088" x="383.0293" y="277.1606">supprimerInvoice(invoiceID: String)</text><polygon fill="#181818" points="387.0293,307.3594,377.0293,311.3594,387.0293,315.3594,383.0293,311.3594" style="stroke:#181818;stroke-width:1;"/><line style="stroke:#181818;stroke-width:1;stroke-dasharray:2.0,2.0;" x1="381.0293" x2="629.5381" y1="311.3594" y2="311.3594"/><text fill="#000000" font-family="sans-serif" font-size="13" lengthAdjust="spacing" textLength="44.0781" x="393.0293" y="306.2935">succ&#232;s</text><polygon fill="#181818" points="88.3765,336.4922,78.3765,340.4922,88.3765,344.4922,84.3765,340.4922" style="stroke:#181818;stroke-width:1;"/><line style="stroke:#181818;stroke-width:1;" x1="82.3765" x2="365.0293" y1="340.4922" y2="340.4922"/><text fill="#000000" font-family="sans-serif" font-size="13" lengthAdjust="spacing" textLength="251.0752" x="94.3765" y="335.4263">afficherMessage("Facture supprim&#233;e")</text><line style="stroke:#000000;stroke-width:1;stroke-dasharray:2.0,2.0;" x1="10" x2="711.6216" y1="349.4922" y2="349.4922"/><text fill="#000000" font-family="sans-serif" font-size="11" font-weight="bold" lengthAdjust="spacing" textLength="107.0728" x="15" y="359.7026">[r&#233;ponse = false]</text><polygon fill="#181818" points="88.3765,380.4297,78.3765,384.4297,88.3765,388.4297,84.3765,384.4297" style="stroke:#181818;stroke-width:1;"/><line style="stroke:#181818;stroke-width:1;" x1="82.3765" x2="365.0293" y1="384.4297" y2="384.4297"/><text fill="#000000" font-family="sans-serif" font-size="13" lengthAdjust="spacing" textLength="264.6528" x="94.3765" y="379.3638">afficherMessage("Suppression annul&#233;e")</text><!--SRC=[dP5DJiCm48NtFiKe6ze5720II4GHKYL-5braFJYJrceoZiPE2pUYvyZ5c3Hf5GG8YPNjUVRtvdd2pd6BWWqqdhtTYcy8edHamaKH2gtdG4yK0cueezeVxaNyORneq4OlaEHKkpt9U-5bHv801iWBeuZeh6kH8oGFQB6aapHklyevHdn5DK9MdmcH6PCNS7qtlKWXT6qhhY7HGko45exttbbQvIciepZUB8UMt1uZdMtCk0wOl4Z1UgwSA68zi3IMyxnOddncHj8VJxbJoBol2LcZrl5IXjinFy0CditwUv6I9FpK7kZ5BrQXixR_2B-pLYFa_p1DZLNbx9PackCYcJxmxD8VALaQgZNQB6E5MlYRDVj9GEQkdcXS6bFIjtbSmRFN8xsrjREe8XaU2k8sswXkZpXsDH6vFzfX6uTEEgRp1FMbgYD5nPl13mRG9m00]--></g></svg>